<?xml version="1.0" encoding="UTF-8"?>
<svg width="239" height="120" viewBox="0 0 239 120" fill="none" xmlns="http://www.w3.org/2000/svg">
  <!-- Цветные треугольники СБП -->
  <g>
    <path d="M0 26.12l14.532 25.975v15.844L.017 93.863 0 26.12z" fill="#5B57A2"/>
    <path d="M55.797 42.643l13.617-8.346 27.868-.026-41.485 25.414V42.643z" fill="#D90751"/>
    <path d="M55.72 25.967l.077 34.39-14.566-8.95V0l14.49 25.967z" fill="#FAB718"/>
    <path d="M97.282 34.271l-27.869.026-13.693-8.33L41.231 0l56.05 34.271z" fill="#ED6F26"/>
    <path d="M55.797 94.007V77.322l-14.566-8.78.008 51.458 14.558-25.993z" fill="#63B22F"/>
    <path d="M69.38 85.737L14.531 52.095 0 26.12l97.223 59.583-27.844.034z" fill="#1487C9"/>
    <path d="M41.24 120l14.556-25.993 13.583-8.27 27.843-.034L41.24 120z" fill="#017F36"/>
    <path d="M.017 93.863l41.333-25.32-13.896-8.526-12.922 7.922L.017 93.863z" fill="#984995"/>
  </g>
  
  <!-- Текст СБП -->
  <g fill="#000000">
    <path d="m 128.817,53.769 c 0,0 -2.474,1.426 -6.169,1.696 -4.248,0.126 -8.033,-2.557 -8.033,-7.324 0,-4.65 3.34,-7.315 7.926,-7.315 2.812,0 6.532,1.949 6.532,1.949 0,0 2.722,-4.995 4.132,-7.493 -2.582,-1.957 -6.021,-3.03 -10.021,-3.03 -10.095,0 -17.914,6.582 -17.914,15.83 0,9.366 7.349,15.795 17.914,15.601 2.953,-0.11 7.027,-1.147 9.51,-2.742 z"/>
    <path d="m 154.11,64.64 c 9.378,0 16.342,-5.75 16.342,-14.467 0,-8.437 -5.138,-13.915 -13.725,-13.915 -3.963,0 -7.233,1.395 -9.696,3.802 0.588,-4.975 4.795,-8.607 9.427,-8.607 1.069,0 9.117,-0.017 9.117,-0.017 l 4.551,-8.709 c 0,0 -10.104,0.23 -14.801,0.23 -10.732,0.187 -17.981,9.942 -17.981,21.79 0,13.803 7.07,19.893 16.766,19.893 z m 0.057,-20.668 c 3.482,0 5.896,2.288 5.896,6.2 0,3.521 -2.145,6.422 -5.896,6.43 -3.588,0 -6.002,-2.688 -6.002,-6.37 0,-3.913 2.414,-6.26 6.002,-6.26 z"/>
    <path d="m 206.664,34.253 v 29.338 h -10.476 v -20.58 h -10.087 v 20.58 h -10.476 v -29.34 h 31.039 z"/>
  </g>
  
  <!-- Подпись -->
  <g fill="#000000" font-family="Arial, sans-serif">
    <text x="114" y="96" font-size="12" font-weight="normal">Система быстрых платежей</text>
  </g>
</svg>
