<svg xmlns="http://www.w3.org/2000/svg" viewBox="0 0 64 64" width="64" height="64">
  <!-- Outer petals -->
  <g fill="#E53935">
    <ellipse cx="32" cy="8" rx="5" ry="9" transform="rotate(0 32 32)"/>
    <ellipse cx="32" cy="8" rx="5" ry="9" transform="rotate(30 32 32)"/>
    <ellipse cx="32" cy="8" rx="5" ry="9" transform="rotate(60 32 32)"/>
    <ellipse cx="32" cy="8" rx="5" ry="9" transform="rotate(90 32 32)"/>
    <ellipse cx="32" cy="8" rx="5" ry="9" transform="rotate(120 32 32)"/>
    <ellipse cx="32" cy="8" rx="5" ry="9" transform="rotate(150 32 32)"/>
    <ellipse cx="32" cy="8" rx="5" ry="9" transform="rotate(180 32 32)"/>
    <ellipse cx="32" cy="8" rx="5" ry="9" transform="rotate(210 32 32)"/>
    <ellipse cx="32" cy="8" rx="5" ry="9" transform="rotate(240 32 32)"/>
    <ellipse cx="32" cy="8" rx="5" ry="9" transform="rotate(270 32 32)"/>
    <ellipse cx="32" cy="8" rx="5" ry="9" transform="rotate(300 32 32)"/>
    <ellipse cx="32" cy="8" rx="5" ry="9" transform="rotate(330 32 32)"/>
  </g>
  <!-- Inner petals -->
  <g fill="#EF5350">
    <ellipse cx="32" cy="14" rx="3.5" ry="6" transform="rotate(15 32 32)"/>
    <ellipse cx="32" cy="14" rx="3.5" ry="6" transform="rotate(45 32 32)"/>
    <ellipse cx="32" cy="14" rx="3.5" ry="6" transform="rotate(75 32 32)"/>
    <ellipse cx="32" cy="14" rx="3.5" ry="6" transform="rotate(105 32 32)"/>
    <ellipse cx="32" cy="14" rx="3.5" ry="6" transform="rotate(135 32 32)"/>
    <ellipse cx="32" cy="14" rx="3.5" ry="6" transform="rotate(165 32 32)"/>
    <ellipse cx="32" cy="14" rx="3.5" ry="6" transform="rotate(195 32 32)"/>
    <ellipse cx="32" cy="14" rx="3.5" ry="6" transform="rotate(225 32 32)"/>
    <ellipse cx="32" cy="14" rx="3.5" ry="6" transform="rotate(255 32 32)"/>
    <ellipse cx="32" cy="14" rx="3.5" ry="6" transform="rotate(285 32 32)"/>
    <ellipse cx="32" cy="14" rx="3.5" ry="6" transform="rotate(315 32 32)"/>
    <ellipse cx="32" cy="14" rx="3.5" ry="6" transform="rotate(345 32 32)"/>
  </g>
  <!-- Center -->
  <circle cx="32" cy="32" r="10" fill="#FFB300"/>
  <circle cx="32" cy="32" r="7" fill="#FF8F00"/>
  <!-- Center dots -->
  <circle cx="30" cy="29" r="1.2" fill="#E65100"/>
  <circle cx="34" cy="29" r="1.2" fill="#E65100"/>
  <circle cx="32" cy="33" r="1.2" fill="#E65100"/>
  <circle cx="29" cy="32" r="1.2" fill="#E65100"/>
  <circle cx="35" cy="32" r="1.2" fill="#E65100"/>
</svg>
